# xmcd
#
# Track frame offsets:
#	150
#	14797
#	24052
#	36572
#	54397
#	65612
#	78952
#	89257
#	104350
#	116237
#
# Disc length: 1706 seconds
#
# Revision: 2
# Processed by: cddbd v1.5.1PL0 Copyright (c) Steve Scherf et al.
# Submitted via: audiograbber 1.83.01
#
DISCID=8006a80a
DTITLE=George Strait - Does Fort Worth Ever Cross Your Mind
DYEAR=1984
DGENRE=Country
TTITLE0=Does Fort Worth Ever Cross Your Mind
TTITLE1=Any Old Time
TTITLE2=I Need Someone Like Me
TTITLE3=You're Dancin' This Dance All Wrong
TTITLE4=Honky Tonk Saturday Night
TTITLE5=I Should Have Watched That First Step
TTITLE6=Love Comes From The Other Side Of Town
TTITLE7=The Cowboy Rides Away
TTITLE8=What Did You Expect Me To Do
TTITLE9=The Fireman
EXTD=
EXTT0=
EXTT1=
EXTT2=
EXTT3=
EXTT4=
EXTT5=
EXTT6=
EXTT7=
EXTT8=
EXTT9=
PLAYORDER=
